<svg width="16" height="13" viewBox="0 0 16 13" fill="none" xmlns="http://www.w3.org/2000/svg">
<path fill-rule="evenodd" clip-rule="evenodd" d="M6.04697 12C5.64851 12 5.25004 11.8403 4.94497 11.5243L1.45528 7.87174C0.848241 7.23637 0.848241 6.2035 1.45528 5.56813C2.06543 4.93276 3.04914 4.93276 3.65618 5.56813L6.04697 8.06724L12.3415 1.47897C12.9516 0.840344 13.9354 0.840344 14.5424 1.47897C15.1525 2.11434 15.1525 3.14396 14.5424 3.78258L7.14898 11.5243C6.8439 11.8403 6.44544 12 6.04697 12Z" fill="#68C67E"/>
<path d="M6.04697 12C5.64851 12 5.25004 11.8403 4.94497 11.5243L1.45528 7.87174C0.848241 7.23637 0.848241 6.2035 1.45528 5.56813C2.06543 4.93276 3.04914 4.93276 3.65618 5.56813L6.04697 8.06724L12.3415 1.47897C12.9516 0.840344 13.9354 0.840344 14.5424 1.47897C15.1525 2.11434 15.1525 3.14396 14.5424 3.78258L7.14898 11.5243C6.8439 11.8403 6.44544 12 6.04697 12" stroke="black" stroke-width="0.5"/>
</svg>
