<svg width="22" height="25" viewBox="0 0 22 25" fill="none" xmlns="http://www.w3.org/2000/svg">
    <path d="M4.11328 16.1836H17.2269V10.6722C17.2269 7.051 14.2913 4.11541 10.6701 4.11541C7.04887 4.11541 4.11328 7.051 4.11328 10.6722V16.1836Z" stroke="#232220"/>
    <path d="M6.78458 5.21667L6.78141 5.17153C6.62295 2.91654 8.40955 1 10.6701 1V1V1C12.8353 1 14.5906 2.75525 14.5906 4.92046V5.21667" stroke="#232220"/>
    <path d="M8.8418 20.3409V21.6477C8.8418 22.9469 9.89495 24 11.1941 24V24C12.4932 24 13.5463 22.9469 13.5463 21.6477V20.3409" stroke="#232220"/>
    <path d="M3.875 16.4219L1 20.3423H20.8636L17.4659 16.4219" stroke="#232220"/>
</svg>
