<svg width="273" height="240" viewBox="0 0 273 240" fill="none" xmlns="http://www.w3.org/2000/svg">
<mask id="path-1-inside-1_176_3015" fill="white">
<path fill-rule="evenodd" clip-rule="evenodd" d="M8 0.639648C3.58172 0.639648 0 4.22138 0 8.63965V200.64C0 200.786 0.00394028 200.932 0.0117207 201.076L0.0117213 233.886C0.0117214 238.726 5.50187 241.521 9.41525 238.674L48.5755 210.19C49.1875 209.745 49.6811 209.218 50.06 208.64H265C269.418 208.64 273 205.058 273 200.64V8.63965C273 4.22137 269.418 0.639648 265 0.639648H8Z"/>
</mask>
<path fill-rule="evenodd" clip-rule="evenodd" d="M8 0.639648C3.58172 0.639648 0 4.22138 0 8.63965V200.64C0 200.786 0.00394028 200.932 0.0117207 201.076L0.0117213 233.886C0.0117214 238.726 5.50187 241.521 9.41525 238.674L48.5755 210.19C49.1875 209.745 49.6811 209.218 50.06 208.64H265C269.418 208.64 273 205.058 273 200.64V8.63965C273 4.22137 269.418 0.639648 265 0.639648H8Z" fill="white"/>
<path d="M0.0117207 201.076H0.511721V201.063L0.510999 201.05L0.0117207 201.076ZM0.0117213 233.886H0.511721H0.0117213ZM9.41525 238.674L9.70937 239.079L9.41525 238.674ZM48.5755 210.19L48.2814 209.785L48.5755 210.19ZM50.06 208.64V208.14H49.7899L49.6418 208.366L50.06 208.64ZM0.5 8.63965C0.5 4.49752 3.85787 1.13965 8 1.13965V0.139648C3.30558 0.139648 -0.5 3.94523 -0.5 8.63965H0.5ZM0.5 200.64V8.63965H-0.5V200.64H0.5ZM0.510999 201.05C0.503699 200.914 0.5 200.777 0.5 200.64H-0.5C-0.5 200.795 -0.495819 200.95 -0.487557 201.103L0.510999 201.05ZM0.511721 233.886L0.511721 201.076H-0.488279L-0.488279 233.886H0.511721ZM9.12113 238.27C5.53823 240.876 0.511721 238.317 0.511721 233.886H-0.488279C-0.488279 239.134 5.4655 242.166 9.70937 239.079L9.12113 238.27ZM48.2814 209.785L9.12113 238.27L9.70937 239.079L48.8697 210.594L48.2814 209.785ZM49.6418 208.366C49.2961 208.893 48.8444 209.376 48.2814 209.785L48.8697 210.594C49.5305 210.113 50.0662 209.542 50.4781 208.914L49.6418 208.366ZM265 208.14H50.06V209.14H265V208.14ZM272.5 200.64C272.5 204.782 269.142 208.14 265 208.14V209.14C269.694 209.14 273.5 205.334 273.5 200.64H272.5ZM272.5 8.63965V200.64H273.5V8.63965H272.5ZM265 1.13965C269.142 1.13965 272.5 4.49751 272.5 8.63965H273.5C273.5 3.94523 269.694 0.139648 265 0.139648V1.13965ZM8 1.13965H265V0.139648H8V1.13965Z" fill="#D3D3D4" mask="url(#path-1-inside-1_176_3015)"/>
</svg>
