<svg width="32" height="32" viewBox="0 0 32 32" fill="none" xmlns="http://www.w3.org/2000/svg">
<path d="M26.6668 5.33334H8.00016C6.5295 5.33334 5.3335 6.52934 5.3335 8V14.6667H8.00016V10.6667L16.5335 17.0667C16.7644 17.2396 17.0451 17.333 17.3335 17.333C17.6219 17.333 17.9026 17.2396 18.1335 17.0667L26.6668 10.6667V22.6667H16.0002V25.3333H26.6668C28.1375 25.3333 29.3335 24.1373 29.3335 22.6667V8C29.3335 6.52934 28.1375 5.33334 26.6668 5.33334ZM17.3335 14.3333L8.88816 8H25.7788L17.3335 14.3333Z" fill="#46474B"/>
<path d="M2.6665 16H11.9998V18.6667H2.6665V16ZM5.33317 20H13.3332V22.6667H5.33317V20ZM9.33317 24H14.6665V26.6667H9.33317V24Z" fill="#46474B"/>
</svg>
