<svg width="400" height="309" viewBox="0 0 400 309" fill="none" xmlns="http://www.w3.org/2000/svg">
<mask id="mask0_168_622" style="mask-type:luminance" maskUnits="userSpaceOnUse" x="0" y="0" width="400" height="309">
<path d="M399.672 0H0V309H399.672V0Z" fill="white"/>
</mask>
<g mask="url(#mask0_168_622)">
<path d="M251.193 279.85C251.116 283.669 225.762 286.5 194.547 286.177C163.34 285.852 138.1 282.485 138.17 278.656C138.247 274.826 163.601 271.994 194.816 272.33C226.024 272.654 251.263 276.021 251.193 279.85Z" fill="#B9DEFF"/>
<path d="M150.051 26.9352C128.189 22.3575 78.1014 30.682 108.717 86.8891C128.392 123.043 106.678 133.273 95.6296 138.964C51.8101 161.5 -5.34676 300.732 267.947 209.237C493.335 133.795 200.161 37.4412 150.051 26.9352Z" fill="#DDEFF8"/>
<mask id="mask1_168_622" style="mask-type:luminance" maskUnits="userSpaceOnUse" x="44" y="155" width="73" height="61">
<path d="M44.9385 155.097H116.124V215.942H44.9385V155.097Z" fill="white"/>
</mask>
<g mask="url(#mask1_168_622)">
<path d="M71.7903 183.614L59.8308 176.715L56.8673 181.842C54.1462 186.554 55.7698 192.587 60.4818 195.309L84.3904 209.112C89.1084 211.844 95.1418 210.22 97.8629 205.508L100.826 200.381L88.8609 193.472L86.8858 196.899C86.338 197.835 85.1334 198.158 84.1972 197.611L70.5672 189.775C70.1029 189.52 69.7665 189.08 69.64 188.575C69.4971 188.065 69.5717 187.526 69.8331 187.072L71.7903 183.614Z" fill="#DDC6A6"/>
<path d="M59.8305 176.707L60.8129 174.996C61.9025 173.114 64.3117 172.467 66.2048 173.55L71.3322 176.514C73.215 177.603 73.862 180.012 72.7724 181.895L71.79 183.606L59.8305 176.707Z" fill="#DDC6A6"/>
<path d="M88.8676 193.479L89.85 191.769C90.9396 189.886 93.3488 189.239 95.2419 190.323L100.369 193.286C102.252 194.376 102.899 196.785 101.809 198.668L100.827 200.378L88.8676 193.479Z" fill="#DDC6A6"/>
<path d="M96.2501 200.74C93.5246 205.468 87.4956 207.075 82.7836 204.354L58.869 190.54C57.5353 189.781 56.397 188.716 55.5508 187.441C55.7637 190.721 57.6089 193.678 60.4501 195.33L84.3897 209.116C89.1017 211.837 95.141 210.224 97.8621 205.512L100.826 200.385L97.5423 198.492L96.2501 200.74Z" fill="#DDC6A6"/>
<path d="M74.995 172.061C74.9183 172.119 74.846 172.161 74.7677 172.192C74.515 172.255 74.2455 172.218 74.0185 172.087C73.7811 171.963 73.6233 171.737 73.5497 171.49C73.1239 169.918 71.4964 168.984 69.9194 169.426C69.5736 169.543 69.1885 169.448 68.9225 169.202C68.6609 168.94 68.5586 168.572 68.6547 168.213C68.7567 167.865 69.0456 167.602 69.4092 167.516C72.0283 166.803 74.7403 168.351 75.4533 170.97C75.5648 171.401 75.367 171.846 74.995 172.061Z" fill="#DDC6A6"/>
<path d="M80.689 170.499C80.6227 170.551 80.5503 170.593 80.472 170.624C79.9518 170.773 79.4147 170.463 79.2659 169.943C78.6432 167.671 77.1532 165.735 75.1059 164.575C73.063 163.399 70.6288 163.096 68.3571 163.718C67.8206 163.863 67.2569 163.555 67.1065 163.008C66.9517 162.477 67.2703 161.908 67.8068 161.763C70.5884 160.997 73.5453 161.371 76.0525 162.802C78.5538 164.224 80.3845 166.583 81.1338 169.36C81.2675 169.807 81.0816 170.272 80.689 170.499Z" fill="#DDC6A6"/>
</g>
<mask id="mask2_168_622" style="mask-type:luminance" maskUnits="userSpaceOnUse" x="73" y="60" width="63" height="49">
<path d="M73.5718 60.8456H135.213V108.17H73.5718V60.8456Z" fill="white"/>
</mask>
<g mask="url(#mask2_168_622)">
<path d="M123.703 65.4879H85.0245C82.6503 65.4879 80.7295 67.4087 80.7295 69.7829V91.2697C80.7295 93.6439 82.6503 95.5766 85.0245 95.5766H91.4789V105.24L106.511 95.5766H123.703C126.077 95.5766 128.01 93.6439 128.01 91.2697V69.7829C128.01 67.4087 126.077 65.4879 123.703 65.4879Z" fill="#DDC6A6"/>
<path d="M117.259 78.3795H97.92C96.7388 78.3795 95.7725 77.425 95.7725 76.232C95.7725 75.0508 96.7388 74.0845 97.92 74.0845H117.259C118.452 74.0845 119.407 75.0508 119.407 76.232C119.407 77.425 118.452 78.3795 117.259 78.3795Z" fill="white"/>
<path d="M117.267 86.9746H91.4732C90.2921 86.9746 89.3257 86.0202 89.3257 84.8271C89.3257 83.646 90.2921 82.6796 91.4732 82.6796H117.267C118.448 82.6796 119.414 83.646 119.414 84.8271C119.414 86.0202 118.448 86.9746 117.267 86.9746Z" fill="#F4F6FF"/>
<path d="M119.412 84.8271C119.412 83.646 118.446 82.6796 117.265 82.6796H95.1694C98.3072 85.4475 102.34 86.9746 106.515 86.9746H117.265C118.446 86.9746 119.412 86.0202 119.412 84.8271Z" fill="white"/>
</g>
<mask id="mask3_168_622" style="mask-type:luminance" maskUnits="userSpaceOnUse" x="268" y="97" width="65" height="48">
<path d="M332.066 97.433H268.039V144.757H332.066V97.433Z" fill="white"/>
</mask>
<g mask="url(#mask3_168_622)">
<path d="M279.994 102.076H320.17C322.636 102.076 324.631 103.996 324.631 106.371V127.857C324.631 130.232 322.636 132.164 320.17 132.164H313.465V141.828L297.851 132.164H279.994C277.528 132.164 275.52 130.232 275.52 127.857V106.371C275.52 103.996 277.528 102.076 279.994 102.076Z" fill="#DDC6A6"/>
<path d="M286.686 114.967H306.774C308.001 114.967 309.005 114.013 309.005 112.82C309.005 111.638 308.001 110.672 306.774 110.672H286.686C285.447 110.672 284.456 111.638 284.456 112.82C284.456 114.013 285.447 114.967 286.686 114.967Z" fill="white"/>
<path d="M286.679 123.563H313.472C314.698 123.563 315.702 122.608 315.702 121.415C315.702 120.234 314.698 119.268 313.472 119.268H286.679C285.452 119.268 284.449 120.234 284.449 121.415C284.449 122.608 285.452 123.563 286.679 123.563Z" fill="#F4F6FF"/>
<path d="M284.451 121.415C284.451 120.234 285.454 119.268 286.681 119.268H309.632C306.373 122.036 302.184 123.563 297.847 123.563H286.681C285.454 123.563 284.451 122.608 284.451 121.415Z" fill="white"/>
</g>
<mask id="mask4_168_622" style="mask-type:luminance" maskUnits="userSpaceOnUse" x="274" y="161" width="43" height="40">
<path d="M274.203 161.46H316.357V200.036H274.203V161.46Z" fill="white"/>
</mask>
<g mask="url(#mask4_168_622)">
<path d="M295.557 186.06C292.467 186.06 289.938 183.531 289.938 180.429C289.938 177.339 292.467 174.81 295.557 174.81C298.659 174.81 301.189 177.339 301.189 180.429C301.189 183.531 298.659 186.06 295.557 186.06ZM306.716 181.889C306.764 181.424 306.811 180.935 306.811 180.434C306.811 179.921 306.764 179.443 306.692 178.966L309.866 176.497C310.14 176.27 310.224 175.864 310.045 175.542L307.05 170.352C306.859 170.006 306.465 169.899 306.131 170.006L302.397 171.51C301.61 170.913 300.786 170.424 299.868 170.042L299.307 166.069C299.247 165.699 298.937 165.437 298.555 165.437H292.566C292.185 165.437 291.886 165.699 291.827 166.069L291.266 170.042C290.347 170.424 289.5 170.925 288.737 171.51L285.002 170.006C284.668 169.875 284.275 170.006 284.084 170.352L281.089 175.542C280.898 175.876 280.982 176.27 281.28 176.497L284.442 178.966C284.37 179.443 284.31 179.944 284.31 180.434C284.31 180.923 284.346 181.424 284.43 181.889L281.256 184.371C280.982 184.597 280.898 185.003 281.065 185.325L284.072 190.515C284.263 190.849 284.656 190.968 284.99 190.849L288.713 189.358C289.5 189.954 290.335 190.443 291.254 190.813L291.815 194.786C291.886 195.168 292.185 195.43 292.566 195.43H298.555C298.937 195.43 299.247 195.168 299.295 194.786L299.856 190.813C300.775 190.443 301.61 189.93 302.385 189.358L306.107 190.849C306.453 190.98 306.847 190.849 307.026 190.515L310.033 185.325C310.224 184.991 310.14 184.597 309.842 184.371L306.716 181.889Z" fill="#DDC6A6"/>
</g>
<mask id="mask5_168_622" style="mask-type:luminance" maskUnits="userSpaceOnUse" x="132" y="51" width="129" height="228">
<path d="M132.627 51.4995H260.682V278.577H132.627V51.4995Z" fill="white"/>
</mask>
<g mask="url(#mask5_168_622)">
<path d="M196.223 149.643C218.255 149.643 236.143 142.464 236.143 133.621C236.143 124.778 235.784 110.659 235.343 102.112L234.544 86.6266C229.617 69.6018 213.988 57.8741 196.223 57.8621C178.459 57.8741 162.83 69.6018 157.902 86.6266L157.103 102.112C156.662 110.659 156.304 124.778 156.304 133.621C156.304 142.464 174.192 149.643 196.223 149.643Z" fill="#73BCE3"/>
<path d="M216.833 69.5398C213.66 67.7502 210.092 67.9769 208.875 70.0409C207.647 72.0929 209.233 75.2068 212.407 76.9844C215.58 78.774 219.148 78.5473 220.365 76.4833C221.581 74.4313 220.007 71.3174 216.833 69.5398Z" fill="#73BCE3"/>
<path d="M143.202 175.546C143.182 181.643 148.284 186.594 154.586 186.594H237.988C244.29 186.594 249.389 181.643 249.366 175.546L249.324 164.498C248.203 155.658 240.686 149.036 231.762 149.025H223.972C219.672 149.025 213.106 153.115 209.32 158.153L199.753 170.881C198.93 171.967 197.653 172.611 196.281 172.623C194.921 172.611 193.632 171.967 192.809 170.881L183.251 158.156C179.466 153.116 172.902 149.025 168.602 149.025H160.812C151.888 149.036 144.359 155.658 143.238 164.498L143.202 175.546Z" fill="#4991B8"/>
<path d="M209.798 146.637V134.241C201.542 139.002 191.354 139.002 183.098 134.241V146.637C183.098 147.854 182.096 148.856 180.867 148.856H176.429L192.929 170.677C193.752 171.787 195.064 172.431 196.448 172.431C197.832 172.431 199.144 171.787 199.968 170.677L216.467 148.856H212.029C210.8 148.856 209.798 147.854 209.798 146.637Z" fill="#E3EFFA"/>
<path d="M220.436 85.1743H210.76C209.925 85.1743 209.161 84.709 208.791 83.9574L206.954 80.2828C206.584 79.5312 205.821 79.0659 204.986 79.0659C204.15 79.0659 203.387 79.5312 203.017 80.2828L201.18 83.9574C200.81 84.709 200.046 85.1743 199.211 85.1743H171.878C170.661 85.1743 169.671 86.1646 169.671 87.3815V110.813C169.504 125.476 181.017 137.609 195.656 138.193C202.766 138.325 209.638 135.593 214.709 130.606C219.779 125.631 222.643 118.806 222.643 111.696V87.3815C222.643 86.1646 221.652 85.1743 220.436 85.1743Z" fill="#E3EFFA"/>
<path d="M209.69 141.042V134.242C201.505 139.134 191.388 139.134 183.204 134.242V140.923C187.058 143.321 191.448 144.622 195.946 144.705C200.766 144.8 205.526 143.536 209.69 141.042Z" fill="#57AEDD"/>
<path d="M220.418 84.8428H210.742C209.907 84.8428 209.143 84.3775 208.773 83.6498L206.936 80.011C206.566 79.2713 205.803 78.806 204.968 78.806C204.132 78.806 203.369 79.2713 202.999 80.011L201.162 83.6498C200.792 84.3775 200.028 84.8428 199.193 84.8428H171.86C170.644 84.8428 169.653 85.8211 169.653 87.038V93.5879C169.653 92.3829 170.644 91.4046 171.86 91.4046H199.193C200.028 91.4046 200.792 90.9393 201.162 90.1996L202.999 86.5608C203.369 85.8211 204.132 85.3558 204.968 85.3558C205.803 85.3558 206.566 85.8211 206.936 86.5608L208.773 90.1996C209.143 90.9393 209.907 91.4046 210.742 91.4046H220.418C221.635 91.4046 222.625 92.3829 222.625 93.5879V87.038C222.625 85.8211 221.635 84.8428 220.418 84.8428Z" fill="#D1E6F4"/>
<path d="M178.601 110.58V87.1727C178.601 85.9558 179.603 84.9656 180.844 84.9656H171.896C170.655 84.9656 169.653 85.9558 169.653 87.1727V110.58C169.486 125.231 181.166 137.352 196.008 137.937C197.702 137.961 199.396 137.83 201.066 137.543C187.966 135.086 178.517 123.74 178.601 110.58Z" fill="#D1E6F4"/>
<path d="M188.603 114.659C188.603 113.824 189.283 113.144 190.118 113.144C190.953 113.144 191.633 113.824 191.633 114.659C191.633 117.164 193.662 119.204 196.179 119.204C198.684 119.204 200.724 117.164 200.724 114.659C200.724 113.824 201.393 113.144 202.24 113.144C203.075 113.144 203.743 113.824 203.743 114.659C203.743 118.835 200.355 122.223 196.179 122.235C191.991 122.223 188.603 118.835 188.603 114.659Z" fill="#2462A2"/>
<path d="M212.839 104.058C212.003 104.058 211.323 103.378 211.323 102.543C211.323 101.708 210.643 101.028 209.808 101.028C208.973 101.028 208.293 101.708 208.293 102.543C208.293 103.378 207.613 104.058 206.778 104.058C205.943 104.058 205.263 103.378 205.263 102.543C205.263 100.038 207.303 97.9974 209.808 97.9974C212.314 97.9974 214.354 100.038 214.354 102.543C214.354 103.378 213.674 104.058 212.839 104.058Z" fill="#2462A2"/>
<path d="M185.577 104.058C184.742 104.058 184.062 103.378 184.062 102.543C184.062 101.708 183.382 101.028 182.546 101.028C181.711 101.028 181.031 101.708 181.031 102.543C181.031 103.378 180.351 104.058 179.516 104.058C178.681 104.058 178.001 103.378 178.001 102.543C178.001 100.038 180.041 97.9974 182.546 97.9974C185.052 97.9974 187.092 100.038 187.092 102.543C187.092 103.378 186.412 104.058 185.577 104.058Z" fill="#2462A2"/>
<path d="M166.858 136.696C166.19 136.696 165.57 136.386 165.152 135.849C161.537 131.172 158.996 125.72 157.695 119.886C157.421 118.562 157.242 117.213 157.171 115.865L156.717 108.91C156.681 108.313 156.872 107.729 157.254 107.287C157.636 106.834 158.173 106.571 158.745 106.524C159.938 106.464 160.964 107.383 161.06 108.612L161.501 115.567C161.561 116.688 161.704 117.81 161.943 118.908C163.088 124.085 165.355 128.929 168.564 133.093C169.089 133.761 169.185 134.68 168.815 135.443C168.457 136.219 167.705 136.708 166.87 136.708L166.858 136.696Z" fill="#293683"/>
<path d="M156.51 86.8129H158.777C160.017 86.8129 161.032 87.8032 161.032 89.0081V115.41C161.032 116.627 160.017 117.606 158.777 117.606H156.51C151.523 117.606 147.479 113.668 147.479 108.813V95.6176C147.479 90.75 151.523 86.8129 156.51 86.8129Z" fill="#293683"/>
<path d="M234.12 86.8129H236.387C241.374 86.8129 245.418 90.75 245.418 95.6176V108.813C245.418 113.668 241.374 117.606 236.387 117.606H234.12C232.879 117.606 231.865 116.627 231.865 115.41V89.0081C231.865 87.8032 232.879 86.8129 234.12 86.8129Z" fill="#293683"/>
<path d="M173.967 137.933C173.967 140.319 172.034 142.252 169.648 142.252C167.274 142.252 165.341 140.319 165.341 137.933C165.341 135.559 167.274 133.626 169.648 133.626C172.034 133.626 173.967 135.559 173.967 137.933Z" fill="#293683"/>
<path d="M369.846 14.9126V292.893H53.6875V14.9126H369.846Z" stroke="#2462A2" stroke-opacity="0.5" stroke-width="0.397683"/>
<path d="M143.167 173.789V220.914C143.167 250.239 166.932 274.005 196.257 274.005C225.582 274.005 249.348 250.239 249.348 220.914V173.789H143.167Z" fill="#4991B8"/>
</g>
<mask id="mask6_168_622" style="mask-type:luminance" maskUnits="userSpaceOnUse" x="155" y="180" width="87" height="81">
<path d="M155.295 180.549H241.195V260.483H155.295V180.549Z" fill="white"/>
</mask>
<g mask="url(#mask6_168_622)">
<path d="M188.643 181.191H188.631C183.62 182.05 178.788 183.875 174.457 186.548C174.457 186.548 174.457 186.548 174.445 186.548C170.127 189.22 166.321 192.728 163.326 196.82C163.314 196.832 163.314 196.832 163.314 196.844C160.2 201.091 157.958 205.97 156.753 211.089C156.753 211.101 156.753 211.101 156.741 211.101C156.132 213.701 155.774 216.362 155.691 219.034C155.619 221.492 155.774 223.95 156.168 226.372C156.18 226.503 156.204 226.646 156.228 226.789V226.801C157.087 231.812 158.912 236.644 161.584 240.974C161.584 240.974 161.584 240.974 161.584 240.986C164.257 245.305 167.764 249.111 171.857 252.118C171.868 252.118 171.868 252.118 171.868 252.118C176.116 255.231 181.007 257.474 186.125 258.679C186.125 258.679 186.137 258.679 186.137 258.691C188.738 259.3 191.399 259.658 194.071 259.741C196.66 259.813 199.261 259.634 201.826 259.204H201.838C203.091 258.99 204.331 258.715 205.56 258.381C206.789 258.047 207.994 257.653 209.187 257.212C210.368 256.759 211.537 256.257 212.671 255.697C213.816 255.136 214.926 254.516 216.011 253.847C216.011 253.847 216.011 253.847 216.023 253.847C217.097 253.179 218.147 252.452 219.161 251.688C220.175 250.925 221.153 250.101 222.084 249.242C223.015 248.383 223.909 247.477 224.756 246.522C224.756 246.522 224.959 246.284 225.377 245.806C225.782 245.317 226.403 244.589 227.154 243.563C226.474 243.074 226.14 242.824 226.14 242.824C225.806 242.573 225.46 242.323 225.126 242.084C224.792 241.833 224.446 241.583 224.112 241.332C224.112 241.332 223.778 241.094 223.098 240.593C222.442 241.487 221.905 242.132 221.547 242.549C221.189 242.967 221.01 243.182 221.01 243.182C220.271 244.005 219.483 244.792 218.672 245.556C217.861 246.307 217.002 247.011 216.119 247.691C215.236 248.359 214.317 248.98 213.375 249.564C213.375 249.576 213.375 249.576 213.363 249.576C212.42 250.161 211.454 250.698 210.452 251.187C209.462 251.676 208.447 252.118 207.409 252.511C206.372 252.905 205.31 253.239 204.248 253.537C203.174 253.824 202.088 254.062 200.991 254.241L200.979 254.253C198.748 254.623 196.481 254.778 194.226 254.718C191.9 254.647 189.573 254.337 187.295 253.8C187.295 253.8 187.283 253.8 187.283 253.788C182.809 252.738 178.55 250.781 174.839 248.061C174.839 248.061 174.839 248.061 174.827 248.061C171.26 245.436 168.194 242.12 165.867 238.338C165.867 238.338 165.856 238.338 165.856 238.326C163.529 234.556 161.93 230.332 161.191 225.966C161.191 225.954 161.179 225.954 161.179 225.942C161.167 225.823 161.143 225.703 161.131 225.584C160.797 223.472 160.654 221.325 160.713 219.189C160.785 216.863 161.095 214.536 161.632 212.258L161.644 212.246C162.694 207.772 164.651 203.513 167.371 199.802V199.79C169.995 196.223 173.312 193.157 177.094 190.831C177.094 190.831 177.094 190.819 177.106 190.819C180.876 188.492 185.099 186.894 189.466 186.154C189.478 186.154 189.478 186.154 189.49 186.142C191.721 185.772 193.988 185.617 196.243 185.677C198.581 185.748 200.895 186.058 203.174 186.595L203.186 186.607C203.186 186.607 203.46 186.667 204.009 186.81C204.558 186.965 205.381 187.18 206.443 187.55C208.579 188.289 211.776 189.566 215.451 192.203C215.952 191.523 216.19 191.188 216.19 191.188C216.441 190.843 216.679 190.508 216.93 190.174C217.169 189.828 217.419 189.494 217.67 189.148C217.67 189.148 217.908 188.814 218.397 188.134C214.174 185.104 210.511 183.636 208.078 182.789C206.849 182.372 205.906 182.121 205.286 181.954C204.654 181.787 204.343 181.716 204.343 181.716H204.331C201.731 181.095 199.07 180.737 196.398 180.654C196.004 180.654 195.61 180.642 195.205 180.642C193.009 180.642 190.814 180.821 188.643 181.191Z" fill="white"/>
<path d="M207.409 195.472L226.748 200.745L221.642 181.358L207.409 195.472Z" fill="white"/>
<path d="M183.338 218.019C183.91 217.208 184.197 216.42 184.197 215.669C184.197 214.905 183.946 214.273 183.445 213.76C182.944 213.259 182.311 212.996 181.524 212.996C180.092 212.996 178.744 214.022 177.468 216.05L173.399 213.652C174.461 212.006 175.63 210.753 176.895 209.906C178.16 209.059 179.782 208.641 181.739 208.641C183.707 208.641 185.425 209.262 186.905 210.515C188.396 211.755 189.136 213.449 189.136 215.597C189.136 216.766 188.837 217.888 188.241 218.961C187.644 220.035 186.547 221.407 184.948 223.077L180.844 227.337H189.816V231.894H173.793V228.124L180.45 221.288C181.798 219.928 182.765 218.83 183.338 218.019Z" fill="white"/>
<path d="M199.283 222.07V218.109H204.163V222.07H206.728V226.461H204.163V231.889H199.283V226.461H190.145V222.595L198.245 209.161H203.769L196.062 222.07H199.283Z" fill="white"/>
<path d="M219.998 205.714H224.615L210.954 235.529H206.373L219.998 205.714Z" fill="white"/>
<path d="M224.387 216.451V209.161H240.803V213.003L231.605 231.889H226.081L234.862 213.516H229.135V216.451H224.387Z" fill="white"/>
</g>
</g>
</svg>
