<svg width="20" height="20" viewBox="0 0 20 20" fill="none" xmlns="http://www.w3.org/2000/svg">
<g clip-path="url(#clip0_174_1897)">
<path d="M11.5768 9.846C11.5768 10.8018 10.8018 11.5768 9.846 11.5768C8.89017 11.5768 8.11523 10.8018 8.11523 9.846C8.11523 8.89017 8.89017 8.11523 9.846 8.11523C10.8018 8.11523 11.5768 8.89017 11.5768 9.846Z" fill="white"/>
<path d="M12.7691 4.61523H6.92293C5.65039 4.61523 4.61523 5.65039 4.61523 6.92293V12.7691C4.61523 14.0416 5.65039 15.0768 6.92293 15.0768H12.7691C14.0416 15.0768 15.0768 14.0416 15.0768 12.7691V6.92293C15.0768 5.65039 14.0416 4.61523 12.7691 4.61523ZM9.846 12.7306C8.25541 12.7306 6.96139 11.4366 6.96139 9.846C6.96139 8.25541 8.25541 6.96139 9.846 6.96139C11.4366 6.96139 12.7306 8.25541 12.7306 9.846C12.7306 11.4366 11.4366 12.7306 9.846 12.7306ZM13.1537 7.11523C12.835 7.11523 12.5768 6.85697 12.5768 6.53831C12.5768 6.21965 12.835 5.96139 13.1537 5.96139C13.4724 5.96139 13.7306 6.21965 13.7306 6.53831C13.7306 6.85697 13.4724 7.11523 13.1537 7.11523Z" fill="white"/>
<path d="M14.5 0H5.19231C2.32933 0 0 2.32933 0 5.19231V14.5C0 17.363 2.32933 19.6923 5.19231 19.6923H14.5C17.363 19.6923 19.6923 17.363 19.6923 14.5V5.19231C19.6923 2.32933 17.363 0 14.5 0ZM16.2308 12.7692C16.2308 14.6779 14.6779 16.2308 12.7692 16.2308H6.92308C5.01442 16.2308 3.46154 14.6779 3.46154 12.7692V6.92308C3.46154 5.01442 5.01442 3.46154 6.92308 3.46154H12.7692C14.6779 3.46154 16.2308 5.01442 16.2308 6.92308V12.7692Z" fill="white"/>
</g>
<defs>
<clipPath id="clip0_174_1897">
<rect width="19.6923" height="19.6923" fill="white"/>
</clipPath>
</defs>
</svg>
