<svg width="20" height="20" viewBox="0 0 20 20" fill="none" xmlns="http://www.w3.org/2000/svg">
<path d="M9.99973 17C10.9457 17 11.8097 16.897 12.5977 16.719L10.8407 14.962C10.5677 14.983 10.2907 15 9.99973 15C4.64874 15 2.57573 11.154 2.07373 10C2.45068 9.15881 2.95978 8.38334 3.58173 7.703L2.18373 6.305C0.645735 7.972 0.0627348 9.651 0.0517348 9.684C-0.0172449 9.88936 -0.0172449 10.1116 0.0517348 10.317C0.0727348 10.383 2.36673 17 9.99973 17ZM9.99973 3C8.16273 3 6.65373 3.396 5.39573 3.981L1.70673 0.292999L0.292735 1.707L18.2927 19.707L19.7067 18.293L16.3877 14.974C19.0017 13.023 19.9347 10.359 19.9487 10.317C20.0177 10.1116 20.0177 9.88936 19.9487 9.684C19.9267 9.617 17.6327 3 9.99973 3ZM14.9717 13.558L12.6917 11.278C12.8817 10.888 12.9997 10.459 12.9997 10C12.9997 8.359 11.6407 7 9.99973 7C9.54074 7 9.11173 7.118 8.72273 7.309L6.91473 5.501C7.90725 5.16041 8.95044 4.991 9.99973 5C15.3507 5 17.4237 8.846 17.9257 10C17.6237 10.692 16.7597 12.342 14.9717 13.558Z" fill="#46474B"/>
</svg>
