<svg width="21" height="20" viewBox="0 0 21 20" fill="none" xmlns="http://www.w3.org/2000/svg">
<path fill-rule="evenodd" clip-rule="evenodd" d="M1.21826 2.36468C1.21826 1.95845 1.37963 1.56887 1.66688 1.28162C1.95412 0.994381 2.34371 0.83301 2.74993 0.83301H18.0183C18.2196 0.832681 18.419 0.872062 18.605 0.948899C18.7911 1.02574 18.9602 1.13852 19.1026 1.28079C19.2451 1.42306 19.358 1.59203 19.4351 1.77802C19.5121 1.96401 19.5517 2.16336 19.5516 2.36468V17.633C19.5518 17.8344 19.5123 18.0338 19.4354 18.2199C19.3585 18.4059 19.2456 18.575 19.1033 18.7174C18.9609 18.8598 18.7919 18.9728 18.6059 19.0498C18.4198 19.1269 18.2204 19.1665 18.0191 19.1663H2.74993C2.54872 19.1663 2.34948 19.1267 2.16359 19.0497C1.97771 18.9726 1.80882 18.8598 1.66658 18.7174C1.52434 18.5751 1.41154 18.4062 1.33461 18.2202C1.25769 18.0343 1.21815 17.8351 1.21826 17.6338V2.36468ZM8.47493 7.82301H10.9574V9.06968C11.3158 8.35301 12.2324 7.70801 13.6099 7.70801C16.2508 7.70801 16.8766 9.13551 16.8766 11.7547V16.6063H14.2041V12.3513C14.2041 10.8597 13.8458 10.018 12.9358 10.018C11.6733 10.018 11.1483 10.9255 11.1483 12.3513V16.6063H8.47493V7.82301ZM3.8916 16.4922H6.56493V7.70801H3.8916V16.4913V16.4922ZM6.94743 4.84301C6.95247 5.0719 6.91174 5.2995 6.82763 5.51244C6.74352 5.72538 6.61772 5.91937 6.45762 6.08304C6.29752 6.2467 6.10634 6.37674 5.89531 6.46552C5.68427 6.55429 5.45763 6.60002 5.22868 6.60002C4.99973 6.60002 4.77309 6.55429 4.56205 6.46552C4.35101 6.37674 4.15984 6.2467 3.99974 6.08304C3.83964 5.91937 3.71384 5.72538 3.62973 5.51244C3.54562 5.2995 3.50489 5.0719 3.50993 4.84301C3.51982 4.39372 3.70525 3.96617 4.0265 3.65191C4.34775 3.33766 4.77928 3.16169 5.22868 3.16169C5.67808 3.16169 6.10961 3.33766 6.43086 3.65191C6.75211 3.96617 6.93754 4.39372 6.94743 4.84301Z" fill="white"/>
</svg>
