<svg width="26" height="26" viewBox="0 0 26 26" fill="none" xmlns="http://www.w3.org/2000/svg">
<path d="M19.6095 14.3907C19.4857 14.2667 19.3388 14.1684 19.177 14.1013C19.0153 14.0343 18.8419 13.9997 18.6668 13.9997C18.4917 13.9997 18.3183 14.0343 18.1565 14.1013C17.9948 14.1684 17.8478 14.2667 17.7241 14.3907L15.5988 16.516C14.6135 16.2227 12.7748 15.556 11.6095 14.3907C10.4441 13.2253 9.77745 11.3867 9.48412 10.4013L11.6095 8.276C11.7334 8.15228 11.8317 8.00534 11.8988 7.84359C11.9659 7.68184 12.0004 7.50844 12.0004 7.33333C12.0004 7.15822 11.9659 6.98483 11.8988 6.82307C11.8317 6.66132 11.7334 6.51438 11.6095 6.39067L6.27612 1.05733C6.1524 0.933404 6.00546 0.835087 5.84371 0.768006C5.68196 0.700925 5.50856 0.666397 5.33345 0.666397C5.15834 0.666397 4.98495 0.700925 4.8232 0.768006C4.66144 0.835087 4.5145 0.933404 4.39079 1.05733L0.774786 4.67333C0.26812 5.18 -0.0172139 5.876 -0.00654721 6.58667C0.0241195 8.48533 0.526787 15.08 5.72412 20.2773C10.9215 25.4747 17.5161 25.976 19.4161 26.008H19.4535C20.1575 26.008 20.8228 25.7307 21.3268 25.2267L24.9428 21.6107C25.0667 21.4869 25.165 21.34 25.2321 21.1783C25.2992 21.0165 25.3337 20.8431 25.3337 20.668C25.3337 20.4929 25.2992 20.3195 25.2321 20.1577C25.165 19.996 25.0667 19.849 24.9428 19.7253L19.6095 14.3907ZM19.4401 23.34C17.7761 23.312 12.0828 22.8653 7.60945 18.3907C3.12145 13.9027 2.68679 8.18933 2.66012 6.55867L5.33345 3.88533L8.78145 7.33333L7.05745 9.05733C6.90074 9.21393 6.78551 9.40711 6.72219 9.61942C6.65887 9.83173 6.64945 10.0565 6.69479 10.2733C6.72679 10.4267 7.50945 14.0627 9.72279 16.276C11.9361 18.4893 15.5721 19.272 15.7255 19.304C15.9422 19.3506 16.1672 19.3419 16.3797 19.2788C16.5921 19.2157 16.7853 19.1001 16.9415 18.9427L18.6668 17.2187L22.1148 20.6667L19.4401 23.34Z" fill="#46474B"/>
</svg>
