<svg width="21" height="20" viewBox="0 0 21 20" fill="none" xmlns="http://www.w3.org/2000/svg">
<g clip-path="url(#clip0_174_1903)">
<path d="M20.3847 3.73986C19.6524 4.06109 18.8721 4.27401 18.0585 4.37739C18.8955 3.8777 19.5342 3.09247 19.8345 2.14601C19.0542 2.61124 18.1927 2.93986 17.2745 3.12324C16.5336 2.33432 15.4776 1.8457 14.3256 1.8457C12.0905 1.8457 10.2912 3.65986 10.2912 5.88386C10.2912 6.20386 10.3182 6.51155 10.3847 6.80447C7.02838 6.64078 4.05854 5.03216 2.06346 2.5817C1.71515 3.18601 1.51084 3.8777 1.51084 4.62232C1.51084 6.02047 2.23084 7.25986 3.30408 7.97739C2.65546 7.96509 2.01915 7.77678 1.48008 7.48016C1.48008 7.49247 1.48008 7.50847 1.48008 7.52447C1.48008 9.48632 2.87946 11.1159 4.71454 11.4912C4.38592 11.5811 4.02777 11.6242 3.65608 11.6242C3.39761 11.6242 3.13669 11.6094 2.89177 11.5552C3.41484 13.154 4.89915 14.3294 6.66407 14.3675C5.29054 15.442 3.54654 16.0894 1.65854 16.0894C1.32746 16.0894 1.00992 16.0746 0.692383 16.034C2.48069 17.1872 4.60008 17.8457 6.88561 17.8457C14.3145 17.8457 18.3761 11.6919 18.3761 6.3577C18.3761 6.17924 18.3699 6.00693 18.3613 5.83586C19.1625 5.26724 19.8358 4.55709 20.3847 3.73986Z" fill="white"/>
</g>
<defs>
<clipPath id="clip0_174_1903">
<rect width="19.6923" height="19.6923" fill="white" transform="translate(0.692383)"/>
</clipPath>
</defs>
</svg>
