<svg width="16" height="20" viewBox="0 0 16 20" fill="none" xmlns="http://www.w3.org/2000/svg">
<path d="M13.2492 10.5287C13.2409 9.00579 13.9297 7.85635 15.324 7.00984C14.5439 5.8936 13.3654 5.27946 11.8093 5.15912C10.3362 5.04293 8.72613 6.01809 8.13689 6.01809C7.51445 6.01809 6.08699 5.20062 4.9666 5.20062C2.65113 5.23796 0.19043 7.04718 0.19043 10.7279C0.19043 11.8151 0.38961 12.9382 0.78797 14.0973C1.31912 15.6202 3.23623 19.3549 5.23633 19.2926C6.28202 19.2677 7.02065 18.5498 8.38171 18.5498C9.70128 18.5498 10.386 19.2926 11.552 19.2926C13.5687 19.2636 15.3032 15.8692 15.8095 14.3422C13.1039 13.0682 13.2492 10.6075 13.2492 10.5287ZM10.9005 3.71507C12.0334 2.3706 11.9296 1.14647 11.8964 0.706615C10.8964 0.76471 9.73863 1.38715 9.07885 2.15482C8.35267 2.97644 7.92526 3.99309 8.01655 5.13837C9.09959 5.22137 10.0872 4.66532 10.9005 3.71507Z" fill="black"/>
</svg>
