<svg width="72" height="80" viewBox="0 0 72 80" fill="none" xmlns="http://www.w3.org/2000/svg">
<path d="M63.4167 46.2118V32.1666C63.4167 19.5667 54.8587 8.9525 43.2654 5.76042C42.1178 2.86992 39.3135 0.833252 36 0.833252C32.6865 0.833252 29.8822 2.86992 28.7346 5.76042C17.1413 8.95642 8.58334 19.5667 8.58334 32.1666V46.2118L1.89759 52.8975C1.53317 53.2606 1.24417 53.6922 1.04722 54.1674C0.850267 54.6427 0.749258 55.1522 0.750004 55.6666V63.4999C0.750004 64.5387 1.16265 65.5349 1.89717 66.2694C2.63169 67.0039 3.62791 67.4166 4.66667 67.4166H67.3333C68.3721 67.4166 69.3683 67.0039 70.1028 66.2694C70.8374 65.5349 71.25 64.5387 71.25 63.4999V55.6666C71.2507 55.1522 71.1497 54.6427 70.9528 54.1674C70.7558 53.6922 70.4668 53.2606 70.1024 52.8975L63.4167 46.2118ZM63.4167 59.5832H8.58334V57.2881L15.2691 50.6023C15.6335 50.2392 15.9225 49.8076 16.1195 49.3324C16.3164 48.8572 16.4174 48.3477 16.4167 47.8333V32.1666C16.4167 21.3683 25.2018 12.5833 36 12.5833C46.7982 12.5833 55.5833 21.3683 55.5833 32.1666V47.8333C55.5833 48.8751 55.9946 49.8699 56.7309 50.6023L63.4167 57.2881V59.5832ZM36 79.1666C38.4256 79.1696 40.7919 78.4169 42.7699 77.013C44.748 75.6092 46.2395 73.6239 47.0372 71.3333H24.9628C25.7605 73.6239 27.252 75.6092 29.2301 77.013C31.2081 78.4169 33.5744 79.1696 36 79.1666Z" fill="#4991B8"/>
</svg>
