<svg width="104" height="116" viewBox="0 0 104 116" fill="none" xmlns="http://www.w3.org/2000/svg">
<path d="M65.2974 84.8905L74.762 94.1017C74.762 94.1017 93.1337 76.1988 99 70.4845M87.1027 67.5577C83.5931 65.3278 79.3739 64.0354 74.8 64.0354C61.9144 64.0354 51.3602 74.5896 51.3602 87.4752C51.3602 100.373 61.9144 110.915 74.8 110.915C87.6222 110.915 98.1258 100.475 98.2398 87.6779M41.5788 96.4584H11.0944C7.72409 96.4584 5 93.7343 5 90.364V23.2881C5 19.9305 7.72409 17.1938 11.0944 17.1938H84.2646C87.6349 17.1938 90.3589 19.9305 90.3589 23.2881C90.3589 23.2881 90.3589 33.6397 90.3589 42.2807M5.05068 35.5402C5.05068 35.5402 69.998 35.5402 87.5842 35.5402M47.6782 5C47.6782 5 47.6782 14.1175 47.6782 16.5856M72.0683 5C72.0683 5 72.0683 14.1175 72.0683 16.5856M23.2881 5C23.2881 5 23.2881 14.1175 23.2881 16.5856" stroke="#4991B8" stroke-width="8.21054" stroke-linecap="round"/>
</svg>
