<svg width="24" height="24" viewBox="0 0 24 24" fill="none" xmlns="http://www.w3.org/2000/svg">
<path d="M7.5 11.5H8.5V12.5H7.5V11.5ZM7.5 15.5H8.5V16.5H7.5V15.5ZM11.5 11.5H12.5V12.5H11.5V11.5ZM11.5 15.5H12.5V16.5H11.5V15.5ZM15.5 11.5H16.5V12.5H15.5V11.5ZM15.5 15.5H16.5V16.5H15.5V15.5Z" fill="white" stroke="#6B6C6F"/>
<path d="M16.5 4V4.5H17H19C19.8269 4.5 20.5 5.17314 20.5 6V20C20.5 20.8269 19.8269 21.5 19 21.5H5C4.17314 21.5 3.5 20.8269 3.5 20V6C3.5 5.17314 4.17314 4.5 5 4.5H7H7.5V4V2.5H8.5V4V4.5H9H15H15.5V4V2.5H16.5V4ZM19.5 7.99996L19.5 7.5H19H5H4.5V8V20V20.5H5H19.001H19.501L19.501 20L19.5 7.99996Z" fill="#6B6C6F" stroke="#6B6C6F"/>
</svg>
