<svg width="94" height="94" viewBox="0 0 94 94" fill="none" xmlns="http://www.w3.org/2000/svg">
<path d="M65.0323 43.2713C67.4178 39.2061 68.4479 34.4874 67.9738 29.798C67.2727 22.8106 63.3717 16.634 56.9953 12.408L52.6674 18.9331C57.0502 21.8393 59.7174 25.9792 60.1796 30.5813C60.3927 32.7202 60.1264 34.8797 59.4001 36.9027C58.6738 38.9258 57.5058 40.7615 55.9809 42.2765L51.3123 46.9451L57.6494 48.8055C74.2248 53.6622 74.4167 70.3315 74.4167 70.5H82.25C82.25 63.493 78.5057 49.8004 65.0323 43.2713Z" fill="#4991B8"/>
<path d="M37.2084 47.0001C45.8485 47.0001 52.875 39.9736 52.875 31.3334C52.875 22.6932 45.8485 15.6667 37.2084 15.6667C28.5682 15.6667 21.5417 22.6932 21.5417 31.3334C21.5417 39.9736 28.5682 47.0001 37.2084 47.0001ZM37.2084 23.5001C41.5285 23.5001 45.0417 27.0133 45.0417 31.3334C45.0417 35.6535 41.5285 39.1667 37.2084 39.1667C32.8883 39.1667 29.375 35.6535 29.375 31.3334C29.375 27.0133 32.8883 23.5001 37.2084 23.5001ZM43.0834 50.9167H31.3334C18.3731 50.9167 7.83337 61.4565 7.83337 74.4167V78.3334H15.6667V74.4167C15.6667 65.7766 22.6932 58.7501 31.3334 58.7501H43.0834C51.7235 58.7501 58.75 65.7766 58.75 74.4167V78.3334H66.5834V74.4167C66.5834 61.4565 56.0436 50.9167 43.0834 50.9167Z" fill="#4991B8"/>
</svg>
