<svg width="80" height="72" viewBox="0 0 80 72" fill="none" xmlns="http://www.w3.org/2000/svg">
<path d="M71.3333 16.4167V8.58333C71.3333 4.26325 67.82 0.75 63.4999 0.75H12.5833C6.10508 0.75 0.833252 6.02183 0.833252 12.5V59.5C0.833252 68.1206 7.85975 71.25 12.5833 71.25H71.3333C75.6533 71.25 79.1666 67.7367 79.1666 63.4167V24.25C79.1666 19.9299 75.6533 16.4167 71.3333 16.4167ZM12.5833 8.58333H63.4999V16.4167H12.5833C11.5748 16.3716 10.6226 15.9392 9.92492 15.2096C9.22724 14.48 8.83787 13.5095 8.83787 12.5C8.83787 11.4905 9.22724 10.52 9.92492 9.79038C10.6226 9.0608 11.5748 8.62844 12.5833 8.58333ZM71.3333 63.4167H12.6303C10.8208 63.3697 8.66658 62.6529 8.66658 59.5V23.5254C9.89642 23.968 11.2007 24.25 12.5833 24.25H71.3333V63.4167Z" fill="#4991B8"/>
</svg>
