<svg width="94" height="94" viewBox="0 0 94 94" fill="none" xmlns="http://www.w3.org/2000/svg">
<g clip-path="url(#clip0_176_2932)">
<path d="M62.6668 34.4666C64.3973 34.4666 65.8001 33.0638 65.8001 31.3333C65.8001 29.6028 64.3973 28.2 62.6668 28.2C60.9363 28.2 59.5334 29.6028 59.5334 31.3333C59.5334 33.0638 60.9363 34.4666 62.6668 34.4666Z" fill="#4991B8"/>
<path d="M40.7333 59.5333C40.7333 62.9957 37.929 65.8 34.4667 65.8C31.0043 65.8 28.2 62.9957 28.2 59.5333C28.2 56.071 31.0043 53.2667 34.4667 53.2667C37.929 53.2667 40.7333 56.071 40.7333 59.5333ZM68.9333 58.4837V60.583C68.9333 61.3381 68.3975 61.9836 67.6549 62.1215L64.5592 62.7011C63.2714 62.9424 62.322 63.9733 62.0619 65.2579C61.8457 66.3264 61.57 67.3761 61.2347 68.3975C60.8274 69.6383 61.1345 70.9951 62.1246 71.8442L64.5028 73.884C65.0762 74.3759 65.2172 75.2031 64.8381 75.858L63.7884 77.6753C63.4124 78.3271 62.6228 78.6216 61.9115 78.3709L58.9255 77.3213C57.6941 76.8889 56.3624 77.3025 55.4913 78.2769C54.7738 79.0822 54.0093 79.8436 53.204 80.5643C52.2295 81.4353 51.8159 82.7639 52.2483 83.9984L53.298 86.9845C53.5487 87.6957 53.2573 88.4853 52.6024 88.8613L50.7851 89.911C50.1333 90.287 49.303 90.146 48.8111 89.5757L46.7713 87.1975C45.9221 86.2074 44.5654 85.9003 43.3246 86.3077C42.3031 86.6429 41.2566 86.9187 40.185 87.1349C38.9003 87.3949 37.8695 88.3443 37.6282 89.6321L37.0485 92.7279C36.9169 93.4642 36.2715 94 35.5163 94H33.417C32.6619 94 32.0164 93.4642 31.8785 92.7216L31.2989 89.6259C31.0576 88.3381 30.0267 87.3886 28.7421 87.1286C27.6736 86.9124 26.6239 86.6367 25.6025 86.3014C24.3617 85.8941 23.0049 86.2011 22.1558 87.1912L20.116 89.5695C19.6241 90.1429 18.7969 90.2839 18.142 89.9047L16.3247 88.8551C15.6729 88.4791 15.3784 87.6895 15.6291 86.9782L16.6787 83.9921C17.1111 82.7576 16.6975 81.4291 15.7231 80.558C14.9178 79.8405 14.1564 79.0759 13.4357 78.2706C12.5647 77.2962 11.2361 76.8826 10.0016 77.315L7.01867 78.3709C6.3074 78.6216 5.5178 78.3302 5.1418 77.6753L4.09213 75.858C3.71613 75.2062 3.85713 74.3759 4.4274 73.884L6.8056 71.8442C7.79573 70.9951 8.1028 69.6383 7.69547 68.3975C7.3602 67.3761 7.08447 66.3295 6.86827 65.2579C6.6082 63.9733 5.6588 62.9424 4.371 62.7011L1.27527 62.1215C0.5358 61.9836 0 61.3381 0 60.583V58.4837C0 57.7285 0.5358 57.083 1.2784 56.9452L4.37413 56.3655C5.66193 56.1243 6.61133 55.0934 6.8714 53.8087C7.0876 52.7403 7.36333 51.6906 7.6986 50.6691C8.10593 49.4283 7.79887 48.0716 6.80873 47.2225L4.43053 45.1827C3.85713 44.6907 3.71613 43.8635 4.09527 43.2087L5.14493 41.3913C5.52093 40.7396 6.31053 40.4451 7.0218 40.6957L10.0079 41.7454C11.2424 42.1778 12.5709 41.7642 13.442 40.7897C14.1595 39.9844 14.9241 39.2231 15.7293 38.5024C16.7038 37.6313 17.1174 36.3028 16.685 35.0683L15.6291 32.0853C15.3784 31.3741 15.6698 30.5844 16.3247 30.2084L18.142 29.1588C18.7937 28.7828 19.6241 28.9238 20.116 29.4941L22.1558 31.8723C23.0049 32.8624 24.3617 33.1695 25.6025 32.7621C26.6239 32.4269 27.6736 32.1511 28.7421 31.9349C30.0267 31.6749 31.0576 30.7255 31.2989 29.4377L31.8785 26.3419C32.0164 25.6024 32.6619 25.0667 33.417 25.0667H35.5163C36.2715 25.0667 36.9169 25.6025 37.0548 26.3451L37.6345 29.4408C37.8757 30.7286 38.9066 31.678 40.1913 31.9381C41.2597 32.1543 42.3094 32.43 43.3309 32.7653C44.5717 33.1726 45.9284 32.8655 46.7775 31.8754L48.8173 29.4972C49.3093 28.9238 50.1365 28.7828 50.7913 29.1619L52.6087 30.2116C53.2604 30.5876 53.5549 31.3772 53.3043 32.0885L52.2546 35.0714C51.8222 36.3059 52.2358 37.6344 53.2103 38.5055C54.0155 39.223 54.7769 39.9876 55.4976 40.7929C56.3687 41.7673 57.6972 42.1809 58.9317 41.7485L61.9178 40.6989C62.6291 40.4482 63.4187 40.7396 63.7947 41.3945L64.8443 43.2118C65.2203 43.8635 65.0793 44.6938 64.5091 45.1858L62.1309 47.2256C61.1407 48.0747 60.8337 49.4315 61.241 50.6723C61.5763 51.6937 61.852 52.7434 62.0682 53.8119C62.3283 55.0965 63.2777 56.1274 64.5655 56.3687L67.6612 56.9483C68.3975 57.083 68.9333 57.7285 68.9333 58.4837ZM53.2667 59.5333C53.2667 49.1495 44.8505 40.7333 34.4667 40.7333C24.0828 40.7333 15.6667 49.1495 15.6667 59.5333C15.6667 69.9172 24.0828 78.3333 34.4667 78.3333C44.8505 78.3333 53.2667 69.9172 53.2667 59.5333Z" fill="#4991B8"/>
<path d="M92.7217 28.7452L89.0369 28.0527C88.0812 27.8741 87.3668 27.1159 87.1694 26.1602C86.9845 25.2703 86.7527 24.3961 86.4769 23.5439C86.1761 22.6195 86.4143 21.6137 87.1506 20.9808L89.9894 18.5493C90.5628 18.0574 90.7038 17.2302 90.3247 16.5753L89.275 14.758C88.899 14.1063 88.1094 13.8117 87.3981 14.0624L83.8637 15.3063C82.9488 15.6291 81.9555 15.3314 81.3069 14.6076C80.7022 13.9339 80.063 13.2947 79.3893 12.69C78.6655 12.0414 78.3679 11.0481 78.6906 10.1332L79.9345 6.5988C80.1852 5.88753 79.8938 5.09793 79.2389 4.72193L77.4216 3.67227C76.7699 3.29627 75.9395 3.43727 75.4476 4.00753L73.013 6.84633C72.3801 7.58267 71.3743 7.8208 70.4499 7.52C69.5977 7.24427 68.7235 7.0124 67.8336 6.82753C66.8811 6.63013 66.1228 5.91573 65.9411 4.96007L65.2486 1.27527C65.117 0.5358 64.4715 0 63.7164 0H61.6171C60.8619 0 60.2165 0.5358 60.0786 1.2784L59.3861 4.9632C59.2075 5.91887 58.4493 6.63327 57.4936 6.83067C56.6037 7.01553 55.7295 7.2474 54.8773 7.52313C53.9529 7.82393 52.9471 7.5858 52.3142 6.84947L49.8827 4.01067C49.3908 3.43727 48.5636 3.29627 47.9087 3.6754L46.0914 4.72507C45.4397 5.10107 45.1451 5.89067 45.3958 6.60193L46.6397 10.1363C46.9625 11.0513 46.6648 12.0445 45.941 12.6931C45.2673 13.2979 44.6281 13.9371 44.0234 14.6107C43.3748 15.3345 42.3815 15.6322 41.4666 15.3095L37.9322 14.0655C37.2209 13.8149 36.4313 14.1063 36.0553 14.7611L35.0057 16.5785C34.6297 17.2302 34.7707 18.0605 35.3409 18.5525L35.648 18.8157C39.3547 18.8783 42.5257 21.5323 43.2119 25.1889L43.3999 26.1853L44.0547 25.4176C45.4929 23.7444 47.5108 22.8295 49.5913 22.7198C52.3988 18.4741 57.1991 15.6667 62.6667 15.6667C71.3179 15.6667 78.3334 22.6822 78.3334 31.3333C78.3334 36.801 75.5259 41.6013 71.2803 44.4025C71.1706 46.483 70.2588 48.5009 68.5856 49.9359L67.8148 50.5939L68.8112 50.7819C72.4678 51.4681 75.1217 54.6391 75.1844 58.3458L75.4476 58.6529C75.9395 59.2263 76.7667 59.3673 77.4216 58.9881L79.2389 57.9385C79.8907 57.5625 80.1852 56.7729 79.9345 56.0616L78.6906 52.5272C78.3679 51.6123 78.6655 50.619 79.3893 49.9704C80.063 49.3657 80.7022 48.7265 81.3069 48.0528C81.9555 47.329 82.9488 47.0313 83.8637 47.3541L87.3981 48.598C88.1094 48.8487 88.899 48.5573 89.275 47.9024L90.3247 46.0851C90.7007 45.4333 90.5597 44.603 89.9894 44.1111L87.1506 41.6765C86.4143 41.0435 86.1761 40.0377 86.4769 39.1134C86.7527 38.2611 86.9845 37.3869 87.1694 36.4971C87.3668 35.5445 88.0812 34.7863 89.0369 34.6045L92.7217 33.9121C93.4643 33.7836 94.0001 33.1381 94.0001 32.383V30.2837C94.0001 29.5285 93.4643 28.8831 92.7217 28.7452Z" fill="#4991B8"/>
</g>
<defs>
<clipPath id="clip0_176_2932">
<rect width="94" height="94" fill="white"/>
</clipPath>
</defs>
</svg>
