<svg width="75" height="118" viewBox="0 0 75 118" fill="none" xmlns="http://www.w3.org/2000/svg">
<path d="M9.58493 72.2588C10.0683 69.6467 9.90641 66.9563 9.11226 64.4221C8.98245 62.0385 11.262 61.2808 15.3377 64.8993L23.3361 71.9994C24.364 72.8841 25.8838 72.8841 26.9117 71.9982L27.0985 71.8107L14.3826 59.1018C14.0138 58.7328 14.0133 58.13 14.3823 57.7612C14.7508 57.3924 15.3541 57.3919 15.7229 57.7609L28.4396 70.4699L29.8654 69.0421L17.1495 56.3336C16.7808 55.9646 16.7807 55.3618 17.1492 54.993C17.5182 54.6243 18.121 54.6242 18.4898 54.9923L31.2057 67.7017L32.6327 66.2748L19.9165 53.565C19.5473 53.1964 19.5472 52.5936 19.9162 52.2244C20.2847 51.8556 20.8875 51.8551 21.2572 52.2241L33.9726 64.9331L35.3988 63.5062L22.683 50.7968C22.3146 50.4283 22.3146 49.8246 22.6831 49.4558C23.0513 49.087 23.6545 49.087 24.0241 49.456L36.74 62.1649L38.1658 60.7376L25.4504 48.0287C25.082 47.6597 25.0807 47.0569 25.4492 46.6881C25.8182 46.3189 26.4218 46.3188 26.7902 46.6873L39.5069 59.3968L40.9332 57.9695L28.2173 45.2601C27.8477 44.8915 27.8476 44.2883 28.2166 43.9199C28.5851 43.5507 29.1879 43.5502 29.5572 43.9192L42.2734 56.6282L43.6993 55.2008L30.9834 42.4919C30.6151 42.1229 30.615 41.5201 30.9839 41.1513C31.3525 40.7821 31.9553 40.782 32.3245 41.1506L45.0404 53.86L46.4666 52.4327L33.7503 39.7237C33.382 39.3547 33.3823 38.752 33.7513 38.3832C34.119 38.0148 34.7223 38.0134 35.0919 38.3825L47.8065 51.0918L49.234 49.6645L36.5177 36.9551C36.1485 36.5866 36.1484 35.9838 36.517 35.6145C36.8859 35.2458 37.4892 35.2453 37.8576 35.6142L50.5738 48.3232L52.0005 46.8959L39.2851 34.1865C38.9154 33.818 38.9158 33.2148 39.2844 32.846C39.6533 32.4772 40.2557 32.4767 40.6249 32.8457L53.3408 45.5546L54.767 44.1277L42.0508 31.4183C41.6824 31.0502 41.6823 30.4466 42.0513 30.0778C42.4199 29.7086 43.0227 29.7085 43.391 30.0774L56.1081 42.7865L57.534 41.3591L44.8181 28.6502C44.4498 28.2812 44.4497 27.678 44.8178 27.3092C45.1864 26.9404 45.79 26.9404 46.1584 27.3089L58.8738 40.0182L60.3013 38.591L47.5855 25.882C47.2163 25.513 47.2162 24.9102 47.5847 24.5414C47.9537 24.1722 48.557 24.1722 48.9257 24.5407L61.6412 37.2501L63.0687 35.8228L50.3516 23.1134C49.9832 22.7453 49.9831 22.1416 50.3517 21.7733L50.3517 21.7728C50.7207 21.4041 51.3231 21.4035 51.6923 21.7725L64.4085 34.4815L65.8344 33.0542L53.1189 20.3452C52.7493 19.9767 52.7501 19.3735 53.1182 19.0047C53.4867 18.6359 54.0904 18.6354 54.4588 19.0043L67.1759 31.7134L68.6017 30.286L55.8855 17.5766C55.5162 17.2085 55.5162 16.6048 55.8852 16.2356C56.2537 15.8673 56.8578 15.8677 57.2261 16.2358L69.942 28.9447L71.3678 27.5178L58.6528 14.8085C58.2836 14.4403 58.2836 13.8363 58.6525 13.4675C59.0211 13.0987 59.6235 13.0986 59.9931 13.4676L72.7089 26.1766L73.3793 25.5059C74.163 24.7213 74.2075 23.4634 73.4779 22.6262C68.7857 17.2395 63.9083 12.0174 58.8551 6.968C55.4872 3.60317 50.1243 3.31533 46.4156 6.30185C20.3057 36.1826 4.5336 45.8288 -7.75964 62.399C-14.7531 71.8259 -23.0396 80.2209 -32.3746 87.3369C-38.4389 91.9587 -40.1558 100.351 -36.3935 106.983C-36.0544 107.582 -35.6804 108.148 -35.2747 108.683C-33.0395 111.631 -29.4237 112.85 -25.8597 111.858C-22.2957 110.865 -19.8303 107.953 -19.4407 104.274C-19.2629 102.603 -18.8049 100.955 -18.0668 99.4024C-16.1485 95.3693 -12.5372 92.398 -8.21114 91.2925C0.923022 88.9575 7.86862 81.5286 9.58493 72.2588Z" fill="#C6A06A"/>
</svg>
