<svg width="32" height="32" viewBox="0 0 32 32" fill="none" xmlns="http://www.w3.org/2000/svg">
<circle cx="16" cy="16" r="16" fill="white"/>
<g clip-path="url(#clip0_677_424)">
<path fill-rule="evenodd" clip-rule="evenodd" d="M6 16.0558C6 21.0275 9.61083 25.1617 14.3333 26V18.7775H11.8333V16H14.3333V13.7775C14.3333 11.2775 15.9442 9.88917 18.2225 9.88917C18.9442 9.88917 19.7225 10 20.4442 10.1108V12.6667H19.1667C17.9442 12.6667 17.6667 13.2775 17.6667 14.0558V16H20.3333L19.8892 18.7775H17.6667V26C22.3892 25.1617 26 21.0283 26 16.0558C26 10.525 21.5 6 16 6C10.5 6 6 10.525 6 16.0558Z" fill="#212227"/>
</g>
<defs>
<clipPath id="clip0_677_424">
<rect width="20" height="20" fill="white" transform="translate(6 6)"/>
</clipPath>
</defs>
</svg>
