<svg width="16" height="18" viewBox="0 0 16 18" fill="none" xmlns="http://www.w3.org/2000/svg">
<path d="M15.7372 7.3807H15.1016V7.34639H7.99956V10.6536H12.4593C11.8086 12.5788 10.0603 13.9608 7.99956 13.9608C5.38482 13.9608 3.26486 11.7396 3.26486 9C3.26486 6.26039 5.38482 4.03918 7.99956 4.03918C9.20652 4.03918 10.3046 4.51624 11.1406 5.29551L13.3727 2.95689C11.9633 1.58068 10.0781 0.731964 7.99956 0.731964C3.64167 0.731964 0.108398 4.43398 0.108398 9C0.108398 13.566 3.64167 17.268 7.99956 17.268C12.3575 17.268 15.8907 13.566 15.8907 9C15.8907 8.44563 15.8363 7.90448 15.7372 7.3807Z" fill="#FFC107"/>
<path d="M1.01855 5.1516L3.6112 7.14378C4.31272 5.32399 6.01169 4.03913 7.99987 4.03913C9.20682 4.03913 10.3049 4.5162 11.1409 5.29546L13.373 2.95685C11.9636 1.58063 10.0784 0.731918 7.99987 0.731918C4.96887 0.731918 2.34032 2.52484 1.01855 5.1516Z" fill="#FF3D00"/>
<path d="M7.99972 17.268C10.038 17.268 11.8901 16.4507 13.2903 15.1216L10.848 12.9562C10.0558 13.585 9.07094 13.9608 7.99972 13.9608C5.94723 13.9608 4.20446 12.5895 3.54792 10.6759L0.974609 12.7532C2.2806 15.4308 4.93282 17.268 7.99972 17.268Z" fill="#4CAF50"/>
<path d="M15.7367 7.38067H15.1011V7.34636H7.99902V10.6536H12.4587C12.1462 11.5783 11.5785 12.3758 10.8462 12.9566C10.8465 12.9562 10.8469 12.9562 10.8473 12.9558L13.2897 15.1212C13.1168 15.2857 15.8902 13.134 15.8902 8.99996C15.8902 8.44559 15.8357 7.90445 15.7367 7.38067Z" fill="#1976D2"/>
</svg>
