<svg width="32" height="32" viewBox="0 0 32 32" fill="none" xmlns="http://www.w3.org/2000/svg">
<circle cx="16" cy="16" r="16" fill="white"/>
<g clip-path="url(#clip0_677_428)">
<path d="M17.7306 15.9998C17.7306 16.9556 16.9556 17.7306 15.9998 17.7306C15.044 17.7306 14.269 16.9556 14.269 15.9998C14.269 15.044 15.044 14.269 15.9998 14.269C16.9556 14.269 17.7306 15.044 17.7306 15.9998Z" fill="#212227"/>
<path d="M18.9229 10.769H13.0767C11.8042 10.769 10.769 11.8042 10.769 13.0767V18.9229C10.769 20.1954 11.8042 21.2306 13.0767 21.2306H18.9229C20.1954 21.2306 21.2306 20.1954 21.2306 18.9229V13.0767C21.2306 11.8042 20.1954 10.769 18.9229 10.769ZM15.9998 18.8844C14.4092 18.8844 13.1152 17.5904 13.1152 15.9998C13.1152 14.4092 14.4092 13.1152 15.9998 13.1152C17.5904 13.1152 18.8844 14.4092 18.8844 15.9998C18.8844 17.5904 17.5904 18.8844 15.9998 18.8844ZM19.3075 13.269C18.9888 13.269 18.7306 13.0108 18.7306 12.6921C18.7306 12.3735 18.9888 12.1152 19.3075 12.1152C19.6262 12.1152 19.8844 12.3735 19.8844 12.6921C19.8844 13.0108 19.6262 13.269 19.3075 13.269Z" fill="#212227"/>
<path d="M20.6538 6.15381H11.3461C8.48314 6.15381 6.15381 8.48314 6.15381 11.3461V20.6538C6.15381 23.5168 8.48314 25.8461 11.3461 25.8461H20.6538C23.5168 25.8461 25.8461 23.5168 25.8461 20.6538V11.3461C25.8461 8.48314 23.5168 6.15381 20.6538 6.15381ZM22.3846 18.923C22.3846 20.8317 20.8317 22.3846 18.923 22.3846H13.0769C11.1682 22.3846 9.61535 20.8317 9.61535 18.923V13.0769C9.61535 11.1682 11.1682 9.61535 13.0769 9.61535H18.923C20.8317 9.61535 22.3846 11.1682 22.3846 13.0769V18.923Z" fill="#212227"/>
</g>
<defs>
<clipPath id="clip0_677_428">
<rect width="19.6923" height="19.6923" fill="white" transform="translate(6.15381 6.15381)"/>
</clipPath>
</defs>
</svg>
