<svg width="32" height="32" viewBox="0 0 32 32" fill="none" xmlns="http://www.w3.org/2000/svg">
<circle cx="16" cy="16" r="16" fill="white"/>
<g clip-path="url(#clip0_677_442)">
<path fill-rule="evenodd" clip-rule="evenodd" d="M6.8335 8.36468C6.8335 7.95845 6.99487 7.56887 7.28211 7.28162C7.56935 6.99438 7.95894 6.83301 8.36516 6.83301H23.6335C23.8348 6.83268 24.0342 6.87206 24.2203 6.9489C24.4064 7.02574 24.5754 7.13852 24.7179 7.28079C24.8603 7.42306 24.9733 7.59203 25.0503 7.77802C25.1273 7.96401 25.1669 8.16336 25.1668 8.36468V23.633C25.167 23.8344 25.1276 24.0338 25.0506 24.2199C24.9737 24.4059 24.8608 24.575 24.7185 24.7174C24.5762 24.8598 24.4071 24.9728 24.2211 25.0498C24.0351 25.1269 23.8357 25.1665 23.6343 25.1663H8.36516C8.16395 25.1663 7.96471 25.1267 7.77883 25.0497C7.59294 24.9726 7.42406 24.8598 7.28182 24.7174C7.13958 24.5751 7.02677 24.4062 6.94985 24.2202C6.87292 24.0343 6.83339 23.8351 6.8335 23.6338V8.36468ZM14.0902 13.823H16.5727V15.0697C16.931 14.353 17.8477 13.708 19.2252 13.708C21.866 13.708 22.4918 15.1355 22.4918 17.7547V22.6063H19.8193V18.3513C19.8193 16.8597 19.461 16.018 18.551 16.018C17.2885 16.018 16.7635 16.9255 16.7635 18.3513V22.6063H14.0902V13.823ZM9.50683 22.4922H12.1802V13.708H9.50683V22.4913V22.4922ZM12.5627 10.843C12.5677 11.0719 12.527 11.2995 12.4429 11.5124C12.3588 11.7254 12.233 11.9194 12.0729 12.083C11.9128 12.2467 11.7216 12.3767 11.5105 12.4655C11.2995 12.5543 11.0729 12.6 10.8439 12.6C10.615 12.6 10.3883 12.5543 10.1773 12.4655C9.96625 12.3767 9.77507 12.2467 9.61497 12.083C9.45487 11.9194 9.32907 11.7254 9.24496 11.5124C9.16085 11.2995 9.12012 11.0719 9.12516 10.843C9.13506 10.3937 9.32048 9.96617 9.64173 9.65191C9.96298 9.33766 10.3945 9.16169 10.8439 9.16169C11.2933 9.16169 11.7248 9.33766 12.0461 9.65191C12.3673 9.96617 12.5528 10.3937 12.5627 10.843Z" fill="#212227"/>
</g>
<defs>
<clipPath id="clip0_677_442">
<rect width="20" height="20" fill="white" transform="translate(6 6)"/>
</clipPath>
</defs>
</svg>
