<svg width="33" height="26" viewBox="0 0 33 26" fill="none" xmlns="http://www.w3.org/2000/svg">
<path d="M18.0059 7.17766C18.0059 5.20466 18.6679 3.62366 19.9939 2.43466C21.3199 1.24466 22.9709 0.649658 24.9409 0.649658C27.4579 0.649658 29.4289 1.44866 30.8569 3.04666C32.2849 4.64366 32.9999 6.76966 32.9999 9.42166C32.9999 12.1407 32.5759 14.4537 31.7249 16.3577C30.8749 18.2607 29.8559 19.8407 28.6639 21.1007C27.4759 22.3587 26.2339 23.3447 24.9409 24.0587C23.6499 24.7727 22.5279 25.2977 21.5759 25.6397L18.3109 20.1317C19.6709 19.5867 20.8279 18.7197 21.7789 17.5297C22.7319 16.3397 23.2749 15.0647 23.4119 13.7057C22.0529 13.7057 20.8099 13.1087 19.6879 11.9197C18.5659 10.7297 18.0059 9.14866 18.0059 7.17766ZM0.358887 7.17766C0.358887 5.20466 1.02189 3.62366 2.34789 2.43466C3.67389 1.24366 5.32389 0.649658 7.29489 0.649658C9.81289 0.649658 11.7829 1.44866 13.2109 3.04666C14.6399 4.64366 15.3539 6.76966 15.3539 9.42166C15.3539 12.1407 14.9299 14.4537 14.0789 16.3577C13.2289 18.2607 12.2099 19.8407 11.0189 21.1007C9.83089 22.3587 8.58789 23.3447 7.29489 24.0587C6.00389 24.7727 4.88289 25.2977 3.92989 25.6397L0.665887 20.1317C2.02589 19.5867 3.18189 18.7197 4.13289 17.5297C5.08589 16.3397 5.62989 15.0647 5.76589 13.7057C4.40689 13.7057 3.16389 13.1087 2.04289 11.9197C0.919887 10.7297 0.358887 9.14866 0.358887 7.17766Z" fill="#909193"/>
</svg>
