<svg width="32" height="32" viewBox="0 0 32 32" fill="none" xmlns="http://www.w3.org/2000/svg">
<circle cx="16" cy="16" r="16" fill="white"/>
<g clip-path="url(#clip0_677_435)">
<path d="M25.8461 9.89367C25.1138 10.2149 24.3335 10.4278 23.52 10.5312C24.3569 10.0315 24.9957 9.24628 25.296 8.29982C24.5157 8.76505 23.6541 9.09367 22.736 9.27705C21.995 8.48813 20.939 7.99951 19.787 7.99951C17.552 7.99951 15.7526 9.81367 15.7526 12.0377C15.7526 12.3577 15.7797 12.6654 15.8461 12.9583C12.4898 12.7946 9.51996 11.186 7.52489 8.73551C7.17658 9.33982 6.97227 10.0315 6.97227 10.7761C6.97227 12.1743 7.69227 13.4137 8.7655 14.1312C8.11689 14.1189 7.48058 13.9306 6.9415 13.634C6.9415 13.6463 6.9415 13.6623 6.9415 13.6783C6.9415 15.6401 8.34089 17.2697 10.176 17.645C9.84735 17.7349 9.48919 17.778 9.1175 17.778C8.85904 17.778 8.59812 17.7632 8.35319 17.709C8.87627 19.3078 10.3606 20.4832 12.1255 20.5214C10.752 21.5958 9.00796 22.2432 7.11996 22.2432C6.78889 22.2432 6.47135 22.2284 6.15381 22.1878C7.94212 23.341 10.0615 23.9995 12.347 23.9995C19.776 23.9995 23.8375 17.8457 23.8375 12.5115C23.8375 12.333 23.8313 12.1607 23.8227 11.9897C24.624 11.421 25.2972 10.7109 25.8461 9.89367Z" fill="#212227"/>
</g>
<defs>
<clipPath id="clip0_677_435">
<rect width="19.6923" height="19.6923" fill="white" transform="translate(6.15381 6.15381)"/>
</clipPath>
</defs>
</svg>
